<svg clip-rule="evenodd" fill-rule="evenodd" stroke-linejoin="round" stroke-miterlimit="2" viewBox="0 0 218 40" xmlns="http://www.w3.org/2000/svg"><path d="m1.286 24.889c-.05-.181-.012-.375.102-.524.113-.149.29-.237.478-.237 2.092-.001 7.681-.001 7.681-.001.513 0 .983-.286 1.219-.741 0 0 .839-1.615 1.326-2.555.062-.119.187-.191.321-.185.134.005.252.088.304.212 1.034 2.493 4.546 10.957 4.546 10.957.225.543.771.882 1.358.844.587-.039 1.084-.447 1.236-1.015 0 0 3.309-12.352 4.336-16.187.039-.148.171-.252.324-.256.152-.004.289.093.336.238.774 2.372 2.525 7.741 2.525 7.741.185.565.712.947 1.306.947h9.719c.188 0 .365.088.479.237.114.15.152.344.103.525-2.319 8.229-9.885 14.268-18.851 14.268-8.965 0-16.531-6.039-18.848-14.268z" fill="#ff6100"/><path d="m1.196 21.381c-.318 0-.582-.247-.602-.565-.025-.409-.038-.822-.038-1.237 0-10.806 8.773-19.579 19.578-19.579 10.806 0 19.579 8.773 19.579 19.579 0 .415-.013.828-.039 1.237-.02.318-.283.564-.601.564-1.763.001-7.194.001-8.885.001-.303 0-.571-.195-.665-.483-.742-2.275-3.854-11.813-3.854-11.813-.188-.578-.734-.963-1.342-.947-.607.016-1.132.43-1.289 1.017l-4.788 17.874-4.41-10.629c-.204-.493-.676-.823-1.209-.846-.534-.022-1.032.266-1.278.74 0 0-1.833 3.531-2.444 4.709-.121.232-.36.378-.621.378-1.355 0-5.567 0-7.092 0z" fill="#0070f5"/><g fill="#002d63" fill-rule="nonzero"><path d="m56.085 14.105h2.898v5.562c-.744.561-1.605.992-2.584 1.292-.98.3-1.965.451-2.957.451-1.423 0-2.703-.304-3.839-.911-1.135-.607-2.026-1.449-2.673-2.526-.646-1.077-.969-2.295-.969-3.652 0-1.358.323-2.575.969-3.652.647-1.077 1.544-1.919 2.693-2.526 1.149-.608 2.441-.911 3.877-.911 1.201 0 2.292.202 3.271.607s1.801.992 2.467 1.762l-2.037 1.88c-.979-1.031-2.16-1.547-3.544-1.547-.875 0-1.651.183-2.33.549-.679.365-1.208.881-1.586 1.547-.379.665-.568 1.429-.568 2.291 0 .848.189 1.606.568 2.271.378.666.904 1.185 1.576 1.557s1.439.558 2.301.558c.914 0 1.736-.196 2.467-.587z"/><path d="m63.644 12.03c.366-.51.858-.895 1.479-1.156.62-.261 1.334-.391 2.144-.391v2.819c-.34-.026-.568-.039-.686-.039-.874 0-1.56.245-2.056.735-.496.489-.744 1.224-.744 2.203v4.974h-3.055v-10.536h2.918z"/><path d="m73.024 21.331c-1.11 0-2.105-.231-2.986-.695-.881-.463-1.57-1.106-2.066-1.929-.496-.822-.744-1.756-.744-2.8s.248-1.978.744-2.8c.496-.823 1.185-1.466 2.066-1.929.881-.464 1.876-.695 2.986-.695s2.102.231 2.977.695c.874.463 1.56 1.106 2.056 1.929.496.822.744 1.756.744 2.8s-.248 1.978-.744 2.8c-.496.823-1.182 1.466-2.056 1.929-.875.464-1.867.695-2.977.695zm0-2.506c.783 0 1.426-.265 1.929-.793.503-.529.754-1.237.754-2.125s-.251-1.596-.754-2.125c-.503-.528-1.146-.793-1.929-.793s-1.429.265-1.939.793c-.509.529-.763 1.237-.763 2.125s.254 1.596.763 2.125c.51.528 1.156.793 1.939.793z"/><path d="m96.484 10.639-3.819 10.536h-2.937l-2.37-6.541-2.447 6.541h-2.938l-3.799-10.536h2.879l2.487 7.128 2.585-7.128h2.585l2.506 7.128 2.565-7.128z"/><path d="m96.934 10.639h3.055v10.536h-3.055zm1.528-1.468c-.562 0-1.019-.164-1.371-.49-.353-.326-.529-.731-.529-1.214s.176-.888.529-1.214c.352-.327.809-.49 1.371-.49.561 0 1.018.157 1.37.47.353.314.529.705.529 1.175 0 .509-.176.93-.529 1.263-.352.333-.809.5-1.37.5z"/><path d="m108.253 10.483c1.305 0 2.36.391 3.162 1.175.803.783 1.205 1.945 1.205 3.485v6.032h-3.055v-5.562c0-.835-.183-1.459-.548-1.87-.366-.411-.895-.617-1.587-.617-.77 0-1.383.238-1.84.715-.457.476-.686 1.185-.686 2.125v5.209h-3.055v-10.536h2.918v1.234c.405-.444.907-.787 1.508-1.028.601-.242 1.26-.362 1.978-.362z"/><path d="m125.387 10.639v8.773c0 1.932-.502 3.368-1.507 4.308-1.006.94-2.474 1.41-4.406 1.41-1.019 0-1.985-.124-2.899-.372-.913-.248-1.671-.607-2.271-1.077l1.214-2.193c.444.365 1.005.656 1.684.871.679.216 1.358.323 2.037.323 1.057 0 1.837-.238 2.34-.714.502-.477.754-1.198.754-2.164v-.451c-.797.875-1.906 1.312-3.329 1.312-.966 0-1.851-.212-2.654-.636s-1.439-1.022-1.909-1.792-.705-1.658-.705-2.663.235-1.893.705-2.663 1.106-1.368 1.909-1.792 1.688-.636 2.654-.636c1.527 0 2.689.502 3.485 1.507v-1.351zm-5.776 7.52c.809 0 1.472-.238 1.987-.715.516-.476.774-1.1.774-1.87s-.258-1.394-.774-1.87c-.515-.477-1.178-.715-1.987-.715-.81 0-1.476.238-1.998.715-.522.476-.783 1.1-.783 1.87s.261 1.394.783 1.87c.522.477 1.188.715 1.998.715z"/><path d="m144.598 7.467v13.708h-3.173v-5.621h-6.227v5.621h-3.172v-13.708h3.172v5.405h6.227v-5.405z"/><path d="m156.974 15.946c0 .039-.02.313-.059.823h-7.97c.144.652.483 1.168 1.018 1.547.536.378 1.201.567 1.998.567.548 0 1.034-.081 1.459-.244.424-.164.819-.421 1.184-.774l1.626 1.763c-.992 1.135-2.442 1.703-4.348 1.703-1.188 0-2.238-.231-3.152-.695-.914-.463-1.619-1.106-2.115-1.929-.496-.822-.744-1.756-.744-2.8 0-1.031.244-1.962.734-2.791s1.162-1.475 2.017-1.938c.855-.464 1.811-.695 2.869-.695 1.031 0 1.965.222 2.8.665.836.444 1.492 1.081 1.968 1.91.477.829.715 1.791.715 2.888zm-5.464-3.153c-.692 0-1.272.196-1.742.588-.47.391-.758.927-.862 1.606h5.189c-.104-.666-.391-1.198-.861-1.596-.47-.399-1.045-.598-1.724-.598z"/><path d="m161.987 10.483c1.632 0 2.885.388 3.76 1.165.874.777 1.312 1.948 1.312 3.515v6.012h-2.859v-1.312c-.575.979-1.645 1.468-3.212 1.468-.809 0-1.511-.137-2.105-.411s-1.047-.653-1.361-1.136c-.313-.483-.47-1.031-.47-1.645 0-.979.369-1.749 1.107-2.31.737-.562 1.876-.842 3.417-.842h2.428c0-.666-.202-1.179-.607-1.538s-1.012-.538-1.821-.538c-.562 0-1.113.088-1.655.264s-1.002.415-1.381.715l-1.096-2.135c.574-.404 1.263-.718 2.066-.939.803-.222 1.628-.333 2.477-.333zm-.235 8.792c.522 0 .986-.121 1.39-.362.405-.242.692-.597.862-1.067v-1.077h-2.095c-1.254 0-1.88.411-1.88 1.233 0 .392.153.702.46.93.307.229.728.343 1.263.343z"/><path d="m168.841 6.644h3.055v14.53h-3.055z"/><path d="m181.315 20.665c-.3.222-.669.389-1.107.5-.437.111-.897.166-1.38.166-1.253 0-2.223-.32-2.908-.959-.685-.64-1.028-1.58-1.028-2.82v-4.328h-1.626v-2.35h1.626v-2.565h3.055v2.565h2.624v2.35h-2.624v4.289c0 .444.114.786.342 1.028.229.241.552.362.97.362.483 0 .894-.131 1.233-.392z"/><path d="m188.462 10.483c1.306 0 2.36.391 3.163 1.175.803.783 1.204 1.945 1.204 3.485v6.032h-3.055v-5.562c0-.835-.182-1.459-.548-1.87-.365-.411-.894-.617-1.586-.617-.77 0-1.384.238-1.841.715-.457.476-.685 1.185-.685 2.125v5.209h-3.055v-14.531h3.055v5.092c.405-.405.894-.715 1.469-.93.574-.216 1.201-.323 1.879-.323z"/><path d="m194.611 10.639h3.055v10.536h-3.055zm1.528-1.468c-.562 0-1.019-.164-1.371-.49-.353-.326-.529-.731-.529-1.214s.176-.888.529-1.214c.352-.327.809-.49 1.371-.49.561 0 1.018.157 1.371.47.352.314.528.705.528 1.175 0 .509-.176.93-.528 1.263-.353.333-.81.5-1.371.5z"/><path d="m209.846 15.946c0 .039-.019.313-.058.823h-7.97c.143.652.483 1.168 1.018 1.547.535.378 1.201.567 1.997.567.549 0 1.035-.081 1.459-.244.425-.164.819-.421 1.185-.774l1.625 1.763c-.992 1.135-2.441 1.703-4.347 1.703-1.188 0-2.239-.231-3.153-.695-.914-.463-1.619-1.106-2.115-1.929-.496-.822-.744-1.756-.744-2.8 0-1.031.245-1.962.735-2.791.489-.829 1.161-1.475 2.017-1.938.855-.464 1.811-.695 2.868-.695 1.032 0 1.965.222 2.801.665.835.444 1.491 1.081 1.968 1.91.476.829.714 1.791.714 2.888zm-5.463-3.153c-.692 0-1.273.196-1.743.588-.47.391-.757.927-.862 1.606h5.19c-.105-.666-.392-1.198-.862-1.596-.47-.399-1.044-.598-1.723-.598z"/><path d="m213.822 12.03c.365-.51.858-.895 1.478-1.156s1.335-.391 2.144-.391v2.819c-.339-.026-.567-.039-.685-.039-.875 0-1.56.245-2.056.735-.496.489-.744 1.224-.744 2.203v4.974h-3.055v-10.536h2.918z"/><path d="m53.383 39.683c-1.397 0-2.66-.304-3.789-.911-1.13-.607-2.017-1.449-2.664-2.526-.646-1.077-.969-2.294-.969-3.652s.323-2.575.969-3.652c.647-1.077 1.534-1.919 2.664-2.526 1.129-.607 2.399-.911 3.808-.911 1.188 0 2.262.209 3.222.627.959.418 1.765 1.018 2.418 1.801l-2.036 1.88c-.927-1.07-2.076-1.606-3.447-1.606-.848 0-1.606.187-2.271.559-.666.372-1.185.891-1.557 1.556-.372.666-.558 1.423-.558 2.272s.186 1.606.558 2.272c.372.665.891 1.184 1.557 1.556.665.372 1.423.558 2.271.558 1.371 0 2.52-.541 3.447-1.625l2.036 1.88c-.653.796-1.462 1.403-2.428 1.821s-2.043.627-3.231.627z"/><path d="m66.386 28.756c1.305 0 2.359.391 3.162 1.175.803.783 1.205 1.945 1.205 3.485v6.032h-3.055v-5.562c0-.835-.183-1.458-.549-1.87-.365-.411-.894-.617-1.586-.617-.77 0-1.384.239-1.841.715-.457.477-.685 1.185-.685 2.125v5.209h-3.055v-14.53h3.055v5.091c.405-.405.894-.715 1.469-.93.574-.215 1.201-.323 1.88-.323z"/><path d="m83.148 28.912v10.536h-2.898v-1.253c-.405.456-.888.806-1.449 1.047-.561.242-1.169.362-1.821.362-1.384 0-2.481-.398-3.29-1.194-.81-.796-1.214-1.978-1.214-3.544v-5.954h3.055v5.503c0 1.697.711 2.546 2.134 2.546.731 0 1.319-.238 1.763-.715.443-.476.665-1.185.665-2.125v-5.209z"/><path d="m87.926 30.303c.366-.509.859-.894 1.479-1.156.62-.261 1.335-.391 2.144-.391v2.82c-.339-.026-.568-.039-.685-.039-.875 0-1.56.244-2.057.734-.496.489-.744 1.224-.744 2.203v4.974h-3.054v-10.536h2.917z"/><path d="m97.385 39.604c-1.123 0-2.132-.231-3.026-.695-.894-.463-1.593-1.106-2.095-1.929-.503-.822-.754-1.755-.754-2.8 0-1.044.251-1.978.754-2.8.502-.823 1.201-1.466 2.095-1.929s1.903-.695 3.026-.695c1.109 0 2.079.232 2.908.695s1.432 1.126 1.811 1.988l-2.37 1.272c-.548-.966-1.338-1.449-2.369-1.449-.796 0-1.456.261-1.978.784-.522.522-.783 1.233-.783 2.134s.261 1.612.783 2.135c.522.522 1.182.783 1.978.783 1.044 0 1.834-.483 2.369-1.449l2.37 1.292c-.379.836-.982 1.489-1.811 1.958-.829.47-1.799.705-2.908.705z"/><path d="m109.212 28.756c1.306 0 2.36.391 3.163 1.175.803.783 1.204 1.945 1.204 3.485v6.032h-3.055v-5.562c0-.835-.182-1.458-.548-1.87-.365-.411-.894-.617-1.586-.617-.77 0-1.384.239-1.841.715-.457.477-.685 1.185-.685 2.125v5.209h-3.055v-14.53h3.055v5.091c.404-.405.894-.715 1.468-.93.575-.215 1.202-.323 1.88-.323z"/><path d="m125.799 34.219c0 .039-.02.314-.059.823h-7.97c.143.653.483 1.168 1.018 1.547.535.378 1.201.568 1.998.568.548 0 1.034-.082 1.458-.245.425-.163.82-.421 1.185-.774l1.626 1.763c-.993 1.136-2.442 1.703-4.348 1.703-1.188 0-2.239-.231-3.153-.695-.913-.463-1.618-1.106-2.114-1.929-.497-.822-.745-1.755-.745-2.8 0-1.031.245-1.961.735-2.79.489-.829 1.162-1.476 2.017-1.939s1.811-.695 2.869-.695c1.031 0 1.964.222 2.8.666.835.443 1.491 1.08 1.968 1.909.476.829.715 1.792.715 2.888zm-5.464-3.152c-.692 0-1.273.195-1.743.587s-.757.927-.861 1.606h5.189c-.104-.666-.392-1.198-.862-1.596s-1.044-.597-1.723-.597z"/><path d="m130.401 39.604c-.875 0-1.73-.107-2.566-.323-.835-.215-1.501-.486-1.997-.812l1.018-2.194c.47.301 1.038.545 1.704.735.666.189 1.318.284 1.958.284 1.292 0 1.939-.32 1.939-.96 0-.3-.177-.515-.529-.646-.353-.131-.894-.242-1.625-.333-.862-.13-1.573-.281-2.135-.45-.561-.17-1.048-.47-1.459-.901s-.617-1.045-.617-1.841c0-.666.193-1.256.578-1.772s.947-.917 1.684-1.204c.738-.288 1.609-.431 2.614-.431.745 0 1.485.081 2.223.245.738.163 1.348.388 1.831.675l-1.018 2.174c-.927-.522-1.939-.783-3.036-.783-.652 0-1.142.091-1.468.274-.327.182-.49.417-.49.705 0 .326.176.554.529.685.352.131.914.255 1.684.372.862.144 1.567.297 2.115.46s1.025.46 1.429.891c.405.431.607 1.032.607 1.802 0 .653-.195 1.234-.587 1.743s-.963.904-1.713 1.184c-.751.281-1.642.421-2.673.421z"/></g></svg>