<svg clip-rule="evenodd" fill-rule="evenodd" stroke-linejoin="round" stroke-miterlimit="2" viewBox="0 0 218 41" xmlns="http://www.w3.org/2000/svg"><g fill="#fff"><path d="m1.286 25.691c-.05-.181-.012-.375.102-.524.113-.149.29-.237.478-.237 2.092-.001 7.681-.001 7.681-.001.513 0 .983-.286 1.219-.741 0 0 .839-1.616 1.326-2.555.062-.119.187-.191.321-.186.134.006.252.089.304.213 1.034 2.493 4.546 10.957 4.546 10.957.225.543.771.882 1.358.844.587-.039 1.084-.447 1.236-1.015 0 0 3.309-12.353 4.336-16.187.039-.148.171-.252.324-.256.152-.004.289.093.336.238.774 2.372 2.525 7.74 2.525 7.74.185.565.712.948 1.306.948h9.719c.188 0 .365.087.479.237.114.149.152.344.103.525-2.319 8.229-9.885 14.268-18.851 14.268-8.965 0-16.531-6.039-18.848-14.268z"/><path d="m1.196 22.182c-.318.001-.582-.246-.602-.564-.025-.409-.038-.822-.038-1.237 0-10.806 8.773-19.579 19.578-19.579 10.806 0 19.579 8.773 19.579 19.579 0 .415-.013.828-.039 1.237-.02.317-.283.564-.601.564-1.763 0-7.194 0-8.885 0-.303 0-.571-.194-.665-.482-.742-2.275-3.854-11.813-3.854-11.813-.188-.578-.734-.964-1.342-.947-.607.016-1.132.43-1.289 1.017l-4.788 17.874-4.41-10.629c-.204-.493-.676-.823-1.209-.846-.534-.023-1.032.266-1.278.74 0 0-1.833 3.531-2.444 4.709-.121.232-.36.377-.621.377-1.355 0-5.567 0-7.092 0z"/><g fill-rule="nonzero"><path d="m56.085 14.907h2.898v5.562c-.744.561-1.605.992-2.584 1.292-.98.3-1.965.45-2.957.45-1.423 0-2.703-.303-3.839-.91-1.135-.607-2.026-1.449-2.673-2.526-.646-1.077-.969-2.295-.969-3.652 0-1.358.323-2.576.969-3.653.647-1.077 1.544-1.919 2.693-2.526s2.441-.91 3.877-.91c1.201 0 2.292.202 3.271.607.979.404 1.801.992 2.467 1.762l-2.037 1.88c-.979-1.031-2.16-1.547-3.544-1.547-.875 0-1.651.183-2.33.548-.679.366-1.208.882-1.586 1.547-.379.666-.568 1.43-.568 2.292 0 .848.189 1.605.568 2.271.378.666.904 1.185 1.576 1.557s1.439.558 2.301.558c.914 0 1.736-.196 2.467-.587z"/><path d="m63.644 12.831c.366-.509.858-.894 1.479-1.155.62-.261 1.334-.392 2.144-.392v2.82c-.34-.026-.568-.039-.686-.039-.874 0-1.56.245-2.056.734-.496.49-.744 1.224-.744 2.203v4.974h-3.055v-10.535h2.918z"/><path d="m73.024 22.133c-1.11 0-2.105-.232-2.986-.695-.881-.464-1.57-1.107-2.066-1.929s-.744-1.756-.744-2.8c0-1.045.248-1.978.744-2.801.496-.822 1.185-1.465 2.066-1.928.881-.464 1.876-.696 2.986-.696s2.102.232 2.977.696c.874.463 1.56 1.106 2.056 1.928.496.823.744 1.756.744 2.801 0 1.044-.248 1.978-.744 2.8s-1.182 1.465-2.056 1.929c-.875.463-1.867.695-2.977.695zm0-2.506c.783 0 1.426-.265 1.929-.794.503-.528.754-1.237.754-2.124 0-.888-.251-1.596-.754-2.125s-1.146-.793-1.929-.793-1.429.264-1.939.793c-.509.529-.763 1.237-.763 2.125 0 .887.254 1.596.763 2.124.51.529 1.156.794 1.939.794z"/><path d="m96.484 11.441-3.819 10.535h-2.937l-2.37-6.54-2.447 6.54h-2.938l-3.799-10.535h2.879l2.487 7.128 2.585-7.128h2.585l2.506 7.128 2.565-7.128z"/><path d="m96.934 11.441h3.055v10.535h-3.055zm1.528-1.469c-.562 0-1.019-.163-1.371-.489-.353-.327-.529-.731-.529-1.214s.176-.888.529-1.214c.352-.327.809-.49 1.371-.49.561 0 1.018.157 1.37.47.353.313.529.705.529 1.175 0 .509-.176.93-.529 1.263-.352.333-.809.499-1.37.499z"/><path d="m108.253 11.284c1.305 0 2.36.392 3.162 1.175.803.784 1.205 1.946 1.205 3.486v6.031h-3.055v-5.561c0-.836-.183-1.459-.548-1.87-.366-.411-.895-.617-1.587-.617-.77 0-1.383.238-1.84.715-.457.476-.686 1.185-.686 2.124v5.209h-3.055v-10.535h2.918v1.234c.405-.444.907-.787 1.508-1.028.601-.242 1.26-.363 1.978-.363z"/><path d="m125.387 11.441v8.773c0 1.932-.502 3.368-1.507 4.308-1.006.94-2.474 1.41-4.406 1.41-1.019 0-1.985-.124-2.899-.372-.913-.248-1.671-.607-2.271-1.077l1.214-2.193c.444.365 1.005.656 1.684.871.679.216 1.358.323 2.037.323 1.057 0 1.837-.238 2.34-.715.502-.476.754-1.197.754-2.163v-.451c-.797.875-1.906 1.312-3.329 1.312-.966 0-1.851-.212-2.654-.636s-1.439-1.022-1.909-1.792-.705-1.658-.705-2.663.235-1.893.705-2.663c.47-.771 1.106-1.368 1.909-1.792s1.688-.637 2.654-.637c1.527 0 2.689.503 3.485 1.508v-1.351zm-5.776 7.52c.809 0 1.472-.239 1.987-.715.516-.477.774-1.1.774-1.87s-.258-1.394-.774-1.87c-.515-.477-1.178-.715-1.987-.715-.81 0-1.476.238-1.998.715-.522.476-.783 1.1-.783 1.87s.261 1.393.783 1.87c.522.476 1.188.715 1.998.715z"/><path d="m144.598 8.269v13.707h-3.173v-5.62h-6.227v5.62h-3.172v-13.707h3.172v5.404h6.227v-5.404z"/><path d="m156.974 16.748c0 .039-.02.313-.059.822h-7.97c.144.653.483 1.169 1.018 1.547.536.379 1.201.568 1.998.568.548 0 1.034-.081 1.459-.245.424-.163.819-.421 1.184-.773l1.626 1.762c-.992 1.136-2.442 1.704-4.348 1.704-1.188 0-2.238-.232-3.152-.695-.914-.464-1.619-1.107-2.115-1.929s-.744-1.756-.744-2.8c0-1.032.244-1.962.734-2.791s1.162-1.475 2.017-1.938c.855-.464 1.811-.696 2.869-.696 1.031 0 1.965.222 2.8.666.836.444 1.492 1.081 1.968 1.909.477.829.715 1.792.715 2.889zm-5.464-3.153c-.692 0-1.272.196-1.742.588-.47.391-.758.927-.862 1.605h5.189c-.104-.665-.391-1.197-.861-1.596-.47-.398-1.045-.597-1.724-.597z"/><path d="m161.987 11.284c1.632 0 2.885.389 3.76 1.166.874.776 1.312 1.948 1.312 3.515v6.011h-2.859v-1.312c-.575.98-1.645 1.469-3.212 1.469-.809 0-1.511-.137-2.105-.411s-1.047-.653-1.361-1.136c-.313-.483-.47-1.031-.47-1.645 0-.979.369-1.749 1.107-2.311.737-.561 1.876-.842 3.417-.842h2.428c0-.665-.202-1.178-.607-1.537s-1.012-.538-1.821-.538c-.562 0-1.113.088-1.655.264s-1.002.414-1.381.715l-1.096-2.135c.574-.404 1.263-.718 2.066-.94s1.628-.333 2.477-.333zm-.235 8.793c.522 0 .986-.121 1.39-.362.405-.242.692-.598.862-1.068v-1.077h-2.095c-1.254 0-1.88.412-1.88 1.234 0 .392.153.702.46.93.307.229.728.343 1.263.343z"/><path d="m168.841 7.446h3.055v14.53h-3.055z"/><path d="m181.315 21.467c-.3.222-.669.389-1.107.5-.437.111-.897.166-1.38.166-1.253 0-2.223-.32-2.908-.959-.685-.64-1.028-1.58-1.028-2.82v-4.328h-1.626v-2.35h1.626v-2.565h3.055v2.565h2.624v2.35h-2.624v4.288c0 .444.114.787.342 1.029.229.241.552.362.97.362.483 0 .894-.131 1.233-.392z"/><path d="m188.462 11.284c1.306 0 2.36.392 3.163 1.175.803.784 1.204 1.946 1.204 3.486v6.031h-3.055v-5.561c0-.836-.182-1.459-.548-1.87-.365-.411-.894-.617-1.586-.617-.77 0-1.384.238-1.841.715-.457.476-.685 1.185-.685 2.124v5.209h-3.055v-14.53h3.055v5.092c.405-.405.894-.715 1.469-.93.574-.216 1.201-.324 1.879-.324z"/><path d="m194.611 11.441h3.055v10.535h-3.055zm1.528-1.469c-.562 0-1.019-.163-1.371-.489-.353-.327-.529-.731-.529-1.214s.176-.888.529-1.214c.352-.327.809-.49 1.371-.49.561 0 1.018.157 1.371.47.352.313.528.705.528 1.175 0 .509-.176.93-.528 1.263-.353.333-.81.499-1.371.499z"/><path d="m209.846 16.748c0 .039-.019.313-.058.822h-7.97c.143.653.483 1.169 1.018 1.547.535.379 1.201.568 1.997.568.549 0 1.035-.081 1.459-.245.425-.163.819-.421 1.185-.773l1.625 1.762c-.992 1.136-2.441 1.704-4.347 1.704-1.188 0-2.239-.232-3.153-.695-.914-.464-1.619-1.107-2.115-1.929s-.744-1.756-.744-2.8c0-1.032.245-1.962.735-2.791.489-.829 1.161-1.475 2.017-1.938.855-.464 1.811-.696 2.868-.696 1.032 0 1.965.222 2.801.666.835.444 1.491 1.081 1.968 1.909.476.829.714 1.792.714 2.889zm-5.463-3.153c-.692 0-1.273.196-1.743.588-.47.391-.757.927-.862 1.605h5.19c-.105-.665-.392-1.197-.862-1.596-.47-.398-1.044-.597-1.723-.597z"/><path d="m213.822 12.831c.365-.509.858-.894 1.478-1.155s1.335-.392 2.144-.392v2.82c-.339-.026-.567-.039-.685-.039-.875 0-1.56.245-2.056.734-.496.49-.744 1.224-.744 2.203v4.974h-3.055v-10.535h2.918z"/><path d="m53.383 40.485c-1.397 0-2.66-.304-3.789-.911-1.13-.607-2.017-1.449-2.664-2.526-.646-1.077-.969-2.295-.969-3.652 0-1.358.323-2.575.969-3.652.647-1.077 1.534-1.919 2.664-2.527 1.129-.607 2.399-.91 3.808-.91 1.188 0 2.262.209 3.222.627.959.417 1.765 1.018 2.418 1.801l-2.036 1.88c-.927-1.07-2.076-1.606-3.447-1.606-.848 0-1.606.186-2.271.558-.666.372-1.185.891-1.557 1.557s-.558 1.423-.558 2.272c0 .848.186 1.606.558 2.271.372.666.891 1.185 1.557 1.557.665.372 1.423.558 2.271.558 1.371 0 2.52-.542 3.447-1.625l2.036 1.88c-.653.796-1.462 1.403-2.428 1.821s-2.043.627-3.231.627z"/><path d="m66.386 29.558c1.305 0 2.359.391 3.162 1.175.803.783 1.205 1.945 1.205 3.485v6.032h-3.055v-5.562c0-.835-.183-1.459-.549-1.87-.365-.411-.894-.617-1.586-.617-.77 0-1.384.238-1.841.715-.457.476-.685 1.185-.685 2.125v5.209h-3.055v-14.531h3.055v5.092c.405-.405.894-.715 1.469-.93.574-.216 1.201-.323 1.88-.323z"/><path d="m83.148 29.714v10.536h-2.898v-1.254c-.405.457-.888.806-1.449 1.048-.561.241-1.169.362-1.821.362-1.384 0-2.481-.398-3.29-1.194-.81-.797-1.214-1.978-1.214-3.545v-5.953h3.055v5.503c0 1.697.711 2.546 2.134 2.546.731 0 1.319-.239 1.763-.715.443-.477.665-1.185.665-2.125v-5.209z"/><path d="m87.926 31.105c.366-.51.859-.895 1.479-1.156s1.335-.391 2.144-.391v2.819c-.339-.026-.568-.039-.685-.039-.875 0-1.56.245-2.057.735-.496.489-.744 1.224-.744 2.203v4.974h-3.054v-10.536h2.917z"/><path d="m97.385 40.406c-1.123 0-2.132-.231-3.026-.695-.894-.463-1.593-1.106-2.095-1.929-.503-.822-.754-1.756-.754-2.8s.251-1.978.754-2.8c.502-.823 1.201-1.466 2.095-1.929.894-.464 1.903-.695 3.026-.695 1.109 0 2.079.231 2.908.695.829.463 1.432 1.126 1.811 1.987l-2.37 1.273c-.548-.966-1.338-1.449-2.369-1.449-.796 0-1.456.261-1.978.783-.522.523-.783 1.234-.783 2.135s.261 1.612.783 2.134c.522.523 1.182.784 1.978.784 1.044 0 1.834-.483 2.369-1.449l2.37 1.292c-.379.836-.982 1.488-1.811 1.958s-1.799.705-2.908.705z"/><path d="m109.212 29.558c1.306 0 2.36.391 3.163 1.175.803.783 1.204 1.945 1.204 3.485v6.032h-3.055v-5.562c0-.835-.182-1.459-.548-1.87-.365-.411-.894-.617-1.586-.617-.77 0-1.384.238-1.841.715-.457.476-.685 1.185-.685 2.125v5.209h-3.055v-14.531h3.055v5.092c.404-.405.894-.715 1.468-.93.575-.216 1.202-.323 1.88-.323z"/><path d="m125.799 35.021c0 .039-.02.313-.059.823h-7.97c.143.652.483 1.168 1.018 1.547.535.378 1.201.567 1.998.567.548 0 1.034-.081 1.458-.244.425-.164.82-.421 1.185-.774l1.626 1.763c-.993 1.135-2.442 1.703-4.348 1.703-1.188 0-2.239-.231-3.153-.695-.913-.463-1.618-1.106-2.114-1.929-.497-.822-.745-1.756-.745-2.8 0-1.031.245-1.962.735-2.791.489-.829 1.162-1.475 2.017-1.938.855-.464 1.811-.695 2.869-.695 1.031 0 1.964.222 2.8.665.835.444 1.491 1.081 1.968 1.91.476.829.715 1.791.715 2.888zm-5.464-3.153c-.692 0-1.273.196-1.743.588-.47.391-.757.927-.861 1.606h5.189c-.104-.666-.392-1.198-.862-1.596-.47-.399-1.044-.598-1.723-.598z"/><path d="m130.401 40.406c-.875 0-1.73-.107-2.566-.323-.835-.215-1.501-.486-1.997-.813l1.018-2.193c.47.301 1.038.545 1.704.735.666.189 1.318.284 1.958.284 1.292 0 1.939-.32 1.939-.96 0-.3-.177-.516-.529-.646-.353-.131-.894-.242-1.625-.333-.862-.131-1.573-.281-2.135-.451-.561-.169-1.048-.47-1.459-.9-.411-.431-.617-1.045-.617-1.841 0-.666.193-1.257.578-1.772.385-.516.947-.917 1.684-1.205.738-.287 1.609-.43 2.614-.43.745 0 1.485.081 2.223.244.738.164 1.348.389 1.831.676l-1.018 2.174c-.927-.523-1.939-.784-3.036-.784-.652 0-1.142.092-1.468.274-.327.183-.49.418-.49.705 0 .327.176.555.529.686.352.13.914.254 1.684.372.862.143 1.567.297 2.115.46s1.025.46 1.429.891c.405.431.607 1.031.607 1.802 0 .652-.195 1.233-.587 1.742-.392.51-.963.905-1.713 1.185-.751.281-1.642.421-2.673.421z"/></g></g></svg>